<?xml version="1.0" encoding="utf-8"?>
<svg xmlns="http://www.w3.org/2000/svg" version="1.1" viewBox="6.25 6.22 87.53 87.55">
  <defs>
    <linearGradient id="gradient-1" spreadMethod="pad">
      <stop offset="0.002" style="stop-color: rgb(184, 33, 33);"/>
      <stop offset="0.59" style="stop-color: rgb(67, 88, 122);"/>
    </linearGradient>
    <linearGradient id="gradient-1-0" href="#gradient-1" gradientUnits="userSpaceOnUse" x1="50.004" y1="6.25" x2="50.004" y2="93.75"/>
  </defs>
  <path d="m93.75 49.914c-0.46875 4.2852-4.0898 7.5391-8.4102 7.5391h-21.68c-4.5508 0-8.793 2.3047-11.273 6.1172-2.4766 3.8203-2.8594 8.6289-1.0117 12.789l4.0352 9.0781c0.81641 1.8281 0.64844 3.9453-0.44531 5.6211-1.0703 1.6523-2.8945 2.6602-4.8555 2.6914h-0.10547c-24.148 0-43.75-19.602-43.75-43.75s19.602-43.75 43.75-43.75c24.117 0 43.703 19.555 43.75 43.664zm-73.859 17.469c2.082 3.6016 6.6992 4.8398 10.305 2.7578 3.6016-2.082 4.8398-6.6953 2.7578-10.305-2.082-3.6055-6.6953-4.8438-10.305-2.7578-3.6055 2.082-4.8438 6.6953-2.7617 10.305zm2.8047-1.6211c-1.1836-2.0547-0.48047-4.6875 1.5742-5.875 2.0547-1.1875 4.6914-0.48047 5.8789 1.5742 1.1875 2.0547 0.48047 4.6875-1.5742 5.875-2.0547 1.1875-4.6914 0.48047-5.8789-1.5742zm57.414-33.145c-2.082-3.6055-6.6992-4.8438-10.305-2.7617-3.6016 2.082-4.8398 6.6992-2.7578 10.305 2.082 3.6055 6.6953 4.8438 10.305 2.7617 3.6055-2.082 4.8438-6.6992 2.7617-10.305zm-60.219 0c-2.082 3.6016-0.84375 8.2227 2.7617 10.305 3.6055 2.082 8.2227 0.84375 10.305-2.7617 2.082-3.6016 0.84375-8.2227-2.7578-10.305-3.6055-2.082-8.2266-0.84375-10.305 2.7617zm57.414 1.6172c1.1836 2.0547 0.48047 4.6914-1.5742 5.8789-2.0547 1.1875-4.6914 0.48047-5.8789-1.5742-1.1875-2.0547-0.48047-4.6914 1.5742-5.8789 2.0547-1.1875 4.6914-0.48047 5.8789 1.5742zm-54.605 0c1.1875-2.0547 3.8203-2.7617 5.8789-1.5742 2.0547 1.1875 2.7617 3.8203 1.5742 5.8789-1.1875 2.0547-3.8203 2.7617-5.8789 1.5742-2.0547-1.1875-2.7578-3.8203-1.5742-5.8789zm27.305-19.004c-4.1641 0-7.543 3.3828-7.543 7.543 0 4.1641 3.3828 7.543 7.543 7.543 4.1641 0 7.543-3.3828 7.543-7.543 0-4.1641-3.3828-7.543-7.543-7.543zm0 3.2422c2.375 0 4.3047 1.9297 4.3047 4.3047s-1.9297 4.3047-4.3047 4.3047-4.3047-1.9297-4.3047-4.3047 1.9297-4.3047 4.3047-4.3047z" fill-rule="evenodd" style="fill: url(&quot;#gradient-1-0&quot;);"/>
</svg>